<svg xmlns="http://www.w3.org/2000/svg" width="121" height="121" viewBox="0 0 121 121" fill="none">
  <path d="M55.3704 40.2469C55.3704 37.4628 57.6274 35.2058 60.4115 35.2058V35.2058C63.1957 35.2058 65.4527 37.4628 65.4527 40.2469V40.2469C65.4527 43.0311 63.1957 45.2881 60.4115 45.2881V45.2881C57.6274 45.2881 55.3704 43.0311 55.3704 40.2469V40.2469ZM55.3704 60.4115C55.3704 57.6274 57.6274 55.3704 60.4115 55.3704V55.3704C63.1957 55.3704 65.4527 57.6274 65.4527 60.4115V80.5761C65.4527 83.3603 63.1957 85.6173 60.4115 85.6173V85.6173C57.6274 85.6173 55.3704 83.3603 55.3704 80.5761V60.4115ZM60.4115 10C32.5844 10 10 32.5844 10 60.4115C10 88.2387 32.5844 110.823 60.4115 110.823C88.2387 110.823 110.823 88.2387 110.823 60.4115C110.823 32.5844 88.2387 10 60.4115 10ZM60.4115 100.741C38.18 100.741 20.0823 82.643 20.0823 60.4115C20.0823 38.18 38.18 20.0823 60.4115 20.0823C82.643 20.0823 100.741 38.18 100.741 60.4115C100.741 82.643 82.643 100.741 60.4115 100.741Z" fill="#9CCEB9"/>
</svg>