<svg xmlns="http://www.w3.org/2000/svg" width="15" height="15" viewBox="0 0 15 15" fill="none">
  <path d="M1 0C0.447715 0 0 0.447715 0 1V3.21866C0 3.4726 0.205863 3.67846 0.459808 3.67846V3.67846C0.713753 3.67846 0.913759 3.46936 0.976956 3.22341C1.18081 2.43004 1.90418 1.83923 2.75885 1.83923H4.5177C5.06998 1.83923 5.5177 2.28695 5.5177 2.83923V11.955C5.5177 12.47 5.11306 12.8746 4.59808 12.8746V12.8746C4.09019 12.8746 3.67846 13.2863 3.67846 13.7942V13.7942C3.67846 14.3021 4.09019 14.7139 4.59808 14.7139H10.1158C10.6237 14.7139 11.0354 14.3021 11.0354 13.7942V13.7942C11.0354 13.2863 10.6237 12.8746 10.1158 12.8746V12.8746C9.60079 12.8746 9.19616 12.47 9.19616 11.955V2.83923C9.19616 2.28695 9.64388 1.83923 10.1962 1.83923H11.955C12.8097 1.83923 13.533 2.43004 13.7369 3.22341C13.8001 3.46936 14.0001 3.67846 14.254 3.67846V3.67846C14.508 3.67846 14.7139 3.4726 14.7139 3.21866V0.999999C14.7139 0.447714 14.2661 0 13.7139 0H1Z" fill="#64756E"/>
</svg>